<svg width="589" height="190" viewBox="0 0 589 190" fill="none" xmlns="http://www.w3.org/2000/svg">
<path d="M482.962 171.8C463.362 171.8 455.762 169.6 458.162 155.6C459.362 147.2 463.562 144.4 469.162 140.2C474.762 135.8 477.162 132.2 481.962 119.2C485.762 108.8 488.362 101 481.362 101C477.362 101 476.562 102.2 474.162 102.2C470.962 102.2 465.562 100.4 467.962 91C472.362 74.8 485.362 60.4 501.762 62.2C509.562 63.2 513.362 67.2 515.762 74C516.762 77.4 517.162 79.8 518.962 79.8C520.762 79.8 522.162 77.6 524.762 74.8C532.962 65.2 539.762 60.8 550.362 60.8C565.162 60.8 573.562 71.2 573.562 87C573.562 102.8 566.362 119.6 547.162 119.6C533.962 119.6 531.562 113.4 533.162 104.8C534.962 95.8 533.362 93.8 529.562 93.8C522.162 93.8 518.762 105.4 515.162 117.8C510.562 134 511.762 139 515.162 142.2C519.362 146.2 525.362 147.4 523.162 158.2C520.762 172.6 510.362 171.8 482.962 171.8Z" fill="white"/>
<path d="M401.722 174.2C371.922 174.2 354.522 158 354.522 130.2C354.522 96.4 377.521 60.6 419.721 60.6C444.521 60.6 461.322 72.6 460.922 95.6C460.522 113 451.122 125.8 427.322 128.6C408.322 130.8 398.122 120.6 394.322 119.2C391.922 118.4 390.322 120.4 389.922 123.8C388.122 136.2 399.722 144.2 416.122 144.2C425.122 144 432.122 141.6 437.322 139.2C442.122 137.2 445.522 135.2 448.722 137.4C450.922 139 451.521 142 450.322 145.8C445.921 160.2 431.322 174.2 401.722 174.2ZM414.721 108.4C422.122 108.2 427.922 106.4 428.122 100.2C428.122 92 422.722 88.4 413.322 88.4C404.922 88.4 398.121 95.2 397.721 99.8C396.921 105.8 407.321 108.6 414.721 108.4Z" fill="white"/>
<path d="M254.109 174.2C222.109 174.2 215.109 143.2 225.309 111.6C233.909 84.4 254.909 59.8 281.309 59.8C290.309 59.8 297.309 62.8 301.709 69C304.909 73.2 305.309 78.6 309.709 78.6C312.909 78.6 314.109 76.4 317.109 71.4C323.509 59 326.109 52.6 318.509 52.6C316.109 52.6 314.909 53.2 313.509 53.2C308.709 53.2 306.509 48.8 308.109 42.8C312.709 26.8 326.309 15.8 343.509 15.8C359.509 15.8 369.709 24.8 369.709 39.2C369.709 52.4 361.509 64 351.309 80.2C343.109 93.2 337.509 101.6 332.909 110.2C328.109 119 324.509 127.2 324.509 132.8C324.509 138.4 326.909 141.6 331.109 141.4C336.509 141.4 338.309 138 342.109 138C345.309 138 346.909 141 346.909 145.8C346.509 158.4 335.709 174 315.909 174C304.909 174 299.109 168.8 295.509 163C291.709 157.8 290.909 156.2 288.509 156.2C285.709 156.2 285.509 157.8 281.509 162.4C275.109 169.8 267.309 174.2 254.109 174.2ZM278.909 141C287.109 141 293.109 132.2 294.309 119.2C295.509 104.2 293.509 87.8 280.709 87.8C271.109 87.8 263.309 96.6 262.709 108.2C261.909 124 264.909 141 278.909 141Z" fill="white"/>
<path d="M208.42 55.2C195.62 55 187.62 50.4 187.82 40.6C188.02 30 199.62 18.8 219.82 19.2C232.02 19.4 239.42 24.4 239.22 34.2C239.02 46.6 230.62 55.6 208.42 55.2ZM175.82 173.8C159.62 173.4 149.62 162.8 150.62 146.6C151.42 135 157.22 123 169.82 110.6C173.22 107.2 174.82 104.6 175.02 102.6C175.42 100.6 173.62 99.4 170.62 99.4C168.02 99.4 166.62 100.2 165.02 100C158.62 100 157.22 94.6 159.62 88.2C164.62 75 186.82 63.8 202.62 64C217.82 64 225.22 70.6 224.82 81.6C224.62 94.6 213.22 100.8 202.42 117.8C196.62 126.6 195.02 130.2 195.02 135.2C195.02 137.8 196.02 139.4 198.02 139.6C202.22 140.2 204.82 137.6 207.42 137.6C211.42 137.6 212.22 141.8 212.02 146C211.62 159.2 197.22 174.2 175.82 173.8Z" fill="white"/>
<path d="M73.1997 173.4C55.7997 172.4 41.3997 166.6 31.3997 156.6C16.3997 141.4 13.3997 117.4 17.3997 96.4C20.7997 78.2 28.9997 62 41.1997 49.8C55.1997 35.8 74.1997 27.2 95.3997 28.4C107 29 114.6 32.8 119.8 38.6C122.8 41.6 123 43.8 126.8 44C133.8 44.4 130.2 29.6 141.8 30.4C151 31 150.8 38.4 155.8 60.6C156.6 65.4 157.2 69 157.2 72.2C157.2 80.8 152.6 86.6 142.6 88.2C127.4 90.8 122.2 84.4 115.4 74.6C109.6 65.8 103.4 62.4 94.5997 61.8C85.5997 61.4 77.9997 64.8 72.1997 70.4C66.9997 76 63.3997 84 61.7997 92.8C59.5997 105.8 61.3997 119.6 69.7997 128C75.3997 133.4 83.5997 136.4 93.9997 136.8C103.2 137 112.2 135.2 120.8 131.6C125.6 129.6 129.8 130.4 131.8 133.4C134 136.8 134 142.6 130 148.6C119 165.4 96.5997 174.6 73.1997 173.4Z" fill="white"/>
<path fill-rule="evenodd" clip-rule="evenodd" d="M442.747 159.122C442.663 162.15 442.959 165.344 443.954 168.521C445.851 174.575 449.816 179.103 454.905 181.993C459.431 184.564 464.408 185.6 468.637 186.124C473.007 186.665 477.9 186.8 482.962 186.8C484.297 186.8 485.614 186.802 486.907 186.804C492.033 186.812 496.799 186.82 500.928 186.693C506.036 186.535 511.315 186.156 516.116 184.942C521.147 183.669 526.57 181.253 530.912 176.389C535.111 171.685 537.017 166.122 537.914 160.928C539.577 152.489 538.452 144.639 533.196 138.181C531.087 135.59 528.738 133.807 527.526 132.893C527.42 132.813 527.321 132.738 527.227 132.668C527.284 132.11 527.377 131.408 527.526 130.54C527.59 130.173 527.661 129.785 527.742 129.375C533.618 133.516 540.842 134.6 547.162 134.6C561.913 134.6 573.078 127.787 579.965 117.661C586.371 108.243 588.562 96.8437 588.562 87C588.562 76.5814 585.789 66.1911 578.866 58.1723C571.695 49.8666 561.52 45.8 550.362 45.8C542.761 45.8 535.807 47.4358 529.255 51.1566C526.73 52.5903 524.396 54.2613 522.207 56.0995C521.743 55.625 521.256 55.1602 520.745 54.7069C515.798 50.3155 509.873 48.117 503.67 47.3218L503.535 47.3044L503.399 47.2895C490.024 45.8215 478.53 51.1275 470.188 58.8279C464.46 64.1152 459.966 70.7081 456.81 77.762C458.663 81.0433 459.927 84.7856 460.528 88.9807C460.534 89.0225 460.54 89.0644 460.546 89.1063C460.833 91.1629 460.961 93.3278 460.922 95.6C460.799 100.951 459.824 105.868 457.842 110.192C460.71 113.374 464.046 115.146 467.101 116.112C465.211 121.074 464.032 123.536 463.102 125.04C462.386 126.198 461.755 126.933 460.023 128.304C459.837 128.443 459.639 128.59 459.43 128.745C457.117 130.46 453.449 133.178 450.499 136.71C450.136 137.145 449.785 137.588 449.448 138.039C451.04 139.736 451.377 142.458 450.322 145.8C449.509 148.46 448.348 151.107 446.809 153.654C446.749 153.753 446.688 153.853 446.627 153.952C445.524 155.736 444.235 157.469 442.747 159.122ZM458.162 155.6C455.762 169.6 463.362 171.8 482.962 171.8C484.376 171.8 485.745 171.802 487.07 171.804C511.415 171.842 520.886 171.857 523.162 158.2C524.903 149.653 521.509 147.118 517.935 144.45C516.993 143.747 516.039 143.034 515.162 142.2C511.762 139 510.562 134 515.162 117.8C516.011 114.877 516.848 111.999 517.73 109.306C518.495 106.967 519.294 104.769 520.162 102.804C520.22 102.673 520.278 102.543 520.336 102.414C520.361 102.359 520.386 102.304 520.411 102.25C522.736 97.1837 525.566 93.8 529.562 93.8C533.362 93.8 534.962 95.8 533.162 104.8C532.945 105.969 532.801 107.093 532.749 108.164C532.694 109.279 532.738 110.337 532.9 111.325C533.727 116.364 537.626 119.6 547.162 119.6C566.362 119.6 573.562 102.8 573.562 87C573.562 71.2 565.162 60.8 550.362 60.8C542.078 60.8 536.115 63.4874 529.991 69.2441C529.788 69.4348 529.585 69.6289 529.381 69.8264C529.299 69.906 529.217 69.9861 529.135 70.0667C527.703 71.4751 526.256 73.0513 524.762 74.8C524.177 75.4307 523.652 76.0309 523.17 76.5824C521.511 78.4794 520.357 79.8 518.962 79.8C517.402 79.8 516.894 77.9957 516.134 75.2998C516.018 74.8864 515.895 74.452 515.762 74C514.767 71.1785 513.53 68.8391 511.866 66.996C511.826 66.9511 511.785 66.9064 511.744 66.8621C509.409 64.3416 506.247 62.7749 501.762 62.2C485.362 60.4 472.362 74.8 467.962 91C465.562 100.4 470.962 102.2 474.162 102.2C475.21 102.2 475.953 101.971 476.79 101.714C477.87 101.381 479.108 101 481.362 101C488.362 101 485.762 108.8 481.962 119.2C477.162 132.2 474.762 135.8 469.162 140.2C468.921 140.381 468.681 140.56 468.445 140.737C463.205 144.652 459.311 147.563 458.162 155.6Z" fill="url(#paint0_linear_98_39)"/>
<path fill-rule="evenodd" clip-rule="evenodd" d="M344.456 156.037C347.276 162.644 351.336 168.581 356.72 173.599C368.327 184.415 384.203 189.2 401.722 189.2C429.046 189.2 448.007 178.697 458.179 163.735C457.586 161.608 457.59 158.94 458.162 155.6C458.553 152.863 459.263 150.721 460.235 148.931C460.251 148.902 460.267 148.873 460.283 148.844C461.675 146.319 463.596 144.497 465.887 142.684C465.977 138.419 465.022 133.739 462.014 129.665C462.637 129.077 463.243 128.47 463.832 127.842C470.845 120.372 474.306 111.322 475.47 102.071C475.073 102.15 474.651 102.2 474.162 102.2C471.598 102.2 467.621 101.044 467.377 95.7484C467.377 95.7363 467.376 95.7243 467.376 95.7122C467.32 94.4065 467.49 92.8505 467.962 91C469.167 86.5652 471.016 82.2653 473.403 78.3957C470.732 70.2984 465.967 63.292 459.215 57.821C448.459 49.1044 434.304 45.6 419.722 45.6C366.845 45.6 339.522 90.7297 339.522 130.2C339.522 132.976 339.665 135.706 339.956 138.377C340.621 138.146 341.322 138 342.109 138C345.309 138 346.909 141 346.909 145.8C346.804 149.117 345.978 152.643 344.456 156.037ZM449.459 138.051C449.237 137.814 448.992 137.596 448.722 137.4C445.933 135.482 442.992 136.756 439.104 138.438C438.531 138.686 437.938 138.943 437.322 139.2C434.917 140.31 432.128 141.419 428.935 142.311C428.927 142.314 428.918 142.316 428.91 142.318C426.435 143.008 423.718 143.568 420.748 143.895C419.269 144.059 417.727 144.164 416.122 144.2C406.101 144.2 397.873 141.213 393.398 136.061C392.814 135.389 392.294 134.68 391.842 133.936C391.255 132.968 390.783 131.94 390.436 130.858C390.371 130.655 390.31 130.449 390.254 130.242C389.716 128.263 389.587 126.107 389.922 123.8C390.322 120.4 391.922 118.4 394.322 119.2C395.118 119.493 396.196 120.174 397.577 121.045C401.893 123.768 409.17 128.361 420.083 128.864C422.339 128.968 424.75 128.898 427.322 128.6C428.981 128.405 430.571 128.161 432.093 127.87C432.25 127.84 432.407 127.809 432.563 127.778C438.946 126.506 444.11 124.399 448.193 121.594C456.873 115.633 460.671 106.523 460.922 95.6C461.322 72.6 444.522 60.6 419.722 60.6C377.522 60.6 354.522 96.4 354.522 130.2C354.522 158 371.922 174.2 401.722 174.2C431.322 174.2 445.922 160.2 450.322 145.8C451.375 142.466 451.042 139.748 449.459 138.051ZM397.722 99.8C398.122 95.2 404.922 88.4 413.322 88.4C422.722 88.4 428.122 92 428.122 100.2C427.922 106.4 422.122 108.2 414.722 108.4C407.322 108.6 396.922 105.8 397.722 99.8ZM408.724 92.4895C408.725 92.4887 408.754 92.5017 408.805 92.5308C408.748 92.5048 408.722 92.4902 408.724 92.4895ZM404.656 126.138C404.657 126.138 404.661 126.144 404.667 126.155C404.659 126.143 404.656 126.137 404.656 126.138Z" fill="url(#paint1_linear_98_39)"/>
<path fill-rule="evenodd" clip-rule="evenodd" d="M346.909 145.8C346.509 158.4 335.709 174 315.909 174C304.909 174 299.109 168.8 295.509 163C295.022 162.333 294.584 161.725 294.185 161.172C291.478 157.416 290.601 156.2 288.509 156.2C286.475 156.2 285.813 157.045 284.069 159.271C283.412 160.109 282.603 161.142 281.509 162.4C275.109 169.8 267.309 174.2 254.109 174.2C222.109 174.2 215.109 143.2 225.309 111.6C233.909 84.4 254.909 59.8 281.309 59.8C290.309 59.8 297.309 62.8 301.709 69C302.79 70.4183 303.551 71.9735 304.255 73.4113C305.636 76.2313 306.795 78.6 309.709 78.6C312.795 78.6 314.021 76.5538 316.796 71.9233C316.898 71.7524 317.002 71.578 317.109 71.4C323.509 59 326.109 52.6 318.509 52.6C317.149 52.6 316.174 52.7929 315.329 52.9599C314.684 53.0875 314.116 53.2 313.509 53.2C308.709 53.2 306.509 48.8 308.109 42.8C312.709 26.8 326.309 15.8 343.509 15.8C359.509 15.8 369.709 24.8 369.709 39.2C369.709 51.2018 362.93 61.8809 354.033 75.8976C353.145 77.2969 352.235 78.7295 351.309 80.2C349.463 83.1275 347.748 85.8216 346.147 88.3374C340.638 96.9933 336.473 103.537 332.909 110.2C328.109 119 324.509 127.2 324.509 132.8C324.509 138.4 326.909 141.6 331.109 141.4C334.046 141.4 335.918 140.395 337.626 139.477C339.058 138.708 340.376 138 342.109 138C345.309 138 346.909 141 346.909 145.8ZM292.597 46.0969C292.635 43.5416 293.037 41.106 293.616 38.9351L293.653 38.7948L293.693 38.6554C300.042 16.5727 319.269 0.799988 343.509 0.799988C354.241 0.799988 364.653 3.83744 372.582 10.8956C380.708 18.1282 384.709 28.2522 384.709 39.2C384.709 49.0464 381.611 57.6495 377.72 65.3442C374.635 71.4451 370.563 77.8542 366.544 84.1798C365.691 85.5223 364.841 86.861 364.003 88.1922L363.996 88.2025C362.021 91.3335 360.23 94.149 358.59 96.7265C353.174 105.238 349.409 111.155 346.136 117.275L346.107 117.329L346.078 117.383C344.984 119.388 344.005 121.274 343.153 123.027C347.621 123.258 351.525 124.964 354.567 127.597C354.537 128.466 354.522 129.333 354.522 130.2C354.522 135.901 355.254 141.114 356.674 145.8C356.706 145.905 356.738 146.009 356.77 146.113C357.755 149.279 359.058 152.201 360.664 154.867C356.302 172.036 340.712 189 315.909 189C307.917 189 300.93 187.071 295.046 183.433C292.154 181.645 289.744 179.578 287.726 177.425C284.549 180.236 280.904 182.734 276.63 184.701C269.881 187.807 262.41 189.2 254.109 189.2C243.635 189.2 234.131 186.635 226.237 181.264C218.34 175.891 213.036 168.376 209.874 160.109C209.459 159.024 209.08 157.925 208.735 156.811C210.77 153.305 211.912 149.586 212.02 146C212.22 141.8 211.42 137.6 207.42 137.6C206.937 137.6 206.453 137.69 205.959 137.833C205.885 127.62 207.795 117.04 211.021 107.033C211.183 106.521 211.349 106.01 211.519 105.499C212.331 104.521 213.124 103.58 213.894 102.667C220.041 95.3787 224.693 89.8629 224.82 81.6C224.858 80.5591 224.826 79.5577 224.724 78.5975C228.089 73.6418 231.88 69.0085 236.069 64.852C247.719 53.2934 263.168 44.8 281.309 44.8C285.135 44.8 288.936 45.2087 292.597 46.0969ZM339.514 133.005C339.524 133.073 339.526 133.11 339.524 133.111C339.523 133.113 339.518 133.079 339.514 133.005ZM294.309 119.2C295.509 104.2 293.509 87.8 280.709 87.8C271.109 87.8 263.309 96.6 262.709 108.2C261.909 124 264.909 141 278.909 141C287.109 141 293.109 132.2 294.309 119.2ZM278.521 122.665C278.875 121.391 279.184 119.814 279.365 117.907C279.808 112.293 279.624 107.617 278.979 104.4C278.363 105.412 277.795 106.936 277.689 108.975C277.407 114.567 277.745 119.289 278.521 122.665Z" fill="url(#paint2_linear_98_39)"/>
<path fill-rule="evenodd" clip-rule="evenodd" d="M175.495 188.797L175.45 188.795C164.133 188.516 153.454 184.574 145.793 176.347C138.104 168.09 134.943 157.112 135.649 145.676L135.652 145.622L135.656 145.568C136.521 133.024 141.56 121.072 150.457 109.742C147.99 107.554 146.201 104.873 145.071 102.015C143.118 97.076 143.254 92.103 144.123 87.915C146.94 87.3077 149.279 86.333 151.162 85.0281C151.172 85.0212 151.182 85.0143 151.192 85.0074C155.27 82.1669 157.2 77.7709 157.2 72.2C157.2 70.6257 157.055 68.9547 156.812 67.0915C160.931 63.3356 165.538 60.268 169.913 57.8927C171.962 56.7803 174.107 55.7386 176.32 54.7878C173.924 50.5379 172.718 45.6153 172.823 40.3126C173.244 18.1512 195.333 3.72214 220.092 4.20243C227.834 4.3327 236.292 5.96729 243.141 11.0785C250.736 16.7461 254.397 25.2298 254.218 34.4717C254.053 44.2327 250.454 54.3193 241.186 61.4119C239.478 62.7192 237.659 63.8612 235.739 64.8507C238.783 70.0796 240.007 76.0396 239.816 81.988C239.807 82.4531 239.789 82.9125 239.763 83.3664C233.46 91.6518 228.52 101.445 225.309 111.6C225.169 112.035 225.032 112.47 224.898 112.905C224.867 112.942 224.835 112.979 224.804 113.016C221.785 116.592 218.964 119.934 215.928 124.535C216.86 124.991 217.771 125.535 218.652 126.173C219.737 126.958 220.675 127.814 221.486 128.7C220.74 134.908 220.774 140.859 221.653 146.292C221.662 146.348 221.671 146.404 221.681 146.46C222.331 150.394 223.427 154.054 224.994 157.342C218.758 175.379 198.92 189.234 175.54 188.797L175.495 188.797ZM212.02 146C212.22 141.8 211.42 137.6 207.42 137.6C206.371 137.6 205.323 138.023 204.169 138.489C202.462 139.177 200.526 139.958 198.02 139.6C196.02 139.4 195.02 137.8 195.02 135.2C195.02 131.783 195.767 129.021 198.091 124.806C198.101 124.788 198.11 124.771 198.12 124.753C199.193 122.812 200.6 120.562 202.42 117.8C206.356 111.605 210.371 106.845 213.894 102.667C220.041 95.3787 224.693 89.8629 224.82 81.6C225.003 76.5787 223.56 72.4742 220.492 69.4959C217.734 66.8185 213.662 65.0511 208.277 64.3459C208.27 64.3449 208.263 64.344 208.255 64.343C206.514 64.116 204.636 64 202.62 64C198.324 63.9456 193.554 64.7343 188.785 66.177C176.018 70.0394 163.26 78.5896 159.62 88.2C157.956 92.6371 158.119 96.5935 160.508 98.6031C160.553 98.6412 160.599 98.6787 160.646 98.7155C161.694 99.5347 163.142 100 165.02 100C165.82 100.1 166.57 99.95 167.445 99.775C168.32 99.6 169.32 99.4 170.62 99.4C173.62 99.4 175.42 100.6 175.02 102.6C174.837 104.436 173.473 106.778 170.62 109.78C170.366 110.048 170.099 110.321 169.82 110.6C168.853 111.552 167.925 112.502 167.037 113.45C166.542 113.978 166.059 114.505 165.588 115.032C155.904 125.865 151.325 136.387 150.62 146.6C149.62 162.8 159.62 173.4 175.82 173.8C197.22 174.2 211.62 159.2 212.02 146ZM202.62 54.7571C202.659 54.7628 202.698 54.7685 202.737 54.7741C204.503 55.0275 206.402 55.1684 208.42 55.2C214.511 55.3097 219.563 54.7119 223.691 53.5305C234.612 50.4058 239.075 43.198 239.22 34.2C239.42 24.4 232.02 19.4 219.82 19.2C199.62 18.8 188.02 30 187.82 40.6C187.738 44.6118 189.031 47.7521 191.464 50.0759C194.017 52.514 197.825 54.0533 202.62 54.7571Z" fill="url(#paint3_linear_98_39)"/>
<path fill-rule="evenodd" clip-rule="evenodd" d="M72.3854 188.378L72.3392 188.375C52.1417 187.215 33.9565 180.37 20.7933 167.207L20.7582 167.171L20.7233 167.136C0.884285 147.033 -1.81345 117.137 2.65982 93.6195C6.56443 72.7447 16.0599 53.7268 30.5933 39.1934C47.2167 22.5699 70.2385 11.9626 96.2121 13.4219C107.344 14.0034 116.669 17.0312 124.147 22.4364C124.565 21.9891 125.011 21.5478 125.486 21.1178C130.282 16.7813 136.384 14.9982 142.8 15.4334C147.144 15.72 152.238 16.9598 156.755 20.7157C161.019 24.2608 163.181 28.7564 164.456 32.2318C165.72 35.6755 166.637 39.6402 167.457 43.426C167.787 44.9494 168.106 46.4698 168.438 48.0547C169.019 50.8212 169.641 53.7844 170.433 57.3042L170.526 57.7168L170.596 58.134C170.633 58.3582 170.671 58.5839 170.709 58.811C171.413 63.0238 172.2 67.7291 172.2 72.2C172.2 72.8187 172.185 73.4409 172.154 74.0651C166.26 78.0773 161.597 82.9824 159.62 88.2C158.225 91.9216 158.114 95.305 159.524 97.4852C155.163 100.458 150.15 102.173 145.052 102.998C135.027 104.701 125.971 103.752 117.971 98.814C110.926 94.4654 106.328 87.8378 103.153 83.2618L102.974 83.0041L102.876 82.8547C100.836 79.7597 99.3435 78.549 98.4074 77.9874C97.5576 77.4775 96.2887 76.9701 93.7628 76.7784C89.497 76.6311 85.9542 78.0992 82.9227 80.9037C80.2226 83.957 77.7578 88.9623 76.5742 95.3945C74.7668 106.191 76.9879 113.873 80.3126 117.298C82.5103 119.36 86.7083 121.487 94.4516 121.806C101.395 121.939 108.274 120.582 115.008 117.763L115.019 117.759L115.031 117.754C123.256 114.327 136.651 113.635 144.281 125.079L144.338 125.165L144.393 125.251C150.79 135.137 148.701 147.553 142.518 156.865C127.82 179.266 99.5722 189.772 72.4317 188.38L72.3854 188.378ZM130 148.6C134 142.6 134 136.8 131.8 133.4C129.8 130.4 125.6 129.6 120.8 131.6C112.2 135.2 103.2 137 93.9999 136.8C83.5999 136.4 75.3999 133.4 69.7999 128C61.3999 119.6 59.5999 105.8 61.7999 92.8C63.3999 84 66.9999 76 72.1999 70.4C77.9999 64.8 85.5999 61.4 94.5999 61.8C103.4 62.4 109.6 65.8 115.4 74.6C122.2 84.4 127.4 90.8 142.6 88.2C152.6 86.6 157.2 80.8 157.2 72.2C157.2 69 156.6 65.4 155.8 60.6C154.99 57.0044 154.317 53.7971 153.718 50.944C150.618 36.1813 149.51 30.9028 141.8 30.4C135.265 29.9493 133.554 34.4494 132.054 38.3938C130.892 41.4511 129.856 44.1746 126.8 44C124.123 43.8591 123.233 42.7261 121.892 41.0202C121.329 40.3041 120.687 39.487 119.8 38.6C114.6 32.8 107 29 95.3999 28.4C74.1999 27.2 55.1999 35.8 41.1999 49.8C28.9999 62 20.7999 78.2 17.3999 96.4C13.3999 117.4 16.3999 141.4 31.3999 156.6C41.3999 166.6 55.7999 172.4 73.1999 173.4C96.5999 174.6 119 165.4 130 148.6Z" fill="url(#paint4_linear_98_39)"/>
<defs>
<linearGradient id="paint0_linear_98_39" x1="-610.763" y1="-92.4592" x2="-608.326" y2="227.685" gradientUnits="userSpaceOnUse">
<stop stop-color="#B93C3C"/>
<stop offset="1" stop-color="#531B1B"/>
</linearGradient>
<linearGradient id="paint1_linear_98_39" x1="-208.982" y1="-90.5136" x2="-206.791" y2="223.855" gradientUnits="userSpaceOnUse">
<stop stop-color="#B93C3C"/>
<stop offset="1" stop-color="#531B1B"/>
</linearGradient>
<linearGradient id="paint2_linear_98_39" x1="280.433" y1="-24" x2="282.106" y2="215.615" gradientUnits="userSpaceOnUse">
<stop stop-color="#B93C3C"/>
<stop offset="1" stop-color="#531B1B"/>
</linearGradient>
<linearGradient id="paint3_linear_98_39" x1="770.708" y1="-27.9685" x2="771.865" y2="216.563" gradientUnits="userSpaceOnUse">
<stop stop-color="#B93C3C"/>
<stop offset="1" stop-color="#531B1B"/>
</linearGradient>
<linearGradient id="paint4_linear_98_39" x1="291" y1="-24" x2="296.5" y2="215.5" gradientUnits="userSpaceOnUse">
<stop stop-color="#B93C3C"/>
<stop offset="1" stop-color="#531B1B"/>
</linearGradient>
</defs>
</svg>
